HIERARCHY
ROOT hip
{
  OFFSET 0 0 0
  CHANNELS 6 Xposition Yposition Zposition Zrotation Yrotation Xrotation
  JOINT abdomen
  {
    OFFSET 0 20.6881 -0.73152
    CHANNELS 3 Zrotation Xrotation Yrotation
    JOINT chest
    {
      OFFSET 0 11.7043 -0.48768
      CHANNELS 3 Zrotation Xrotation Yrotation
      JOINT neck
      {
        OFFSET 0 22.1894 -2.19456
        CHANNELS 3 Zrotation Xrotation Yrotation
        JOINT head
        {
          OFFSET -0.24384 7.07133 1.2192
          CHANNELS 3 Zrotation Xrotation Yrotation
          JOINT leftEye
          {
            OFFSET 4.14528 8.04674 8.04672
            CHANNELS 3 Zrotation Xrotation Yrotation
            End Site
            {
              OFFSET 1 0 0
            }
          }
          JOINT rightEye
          {
            OFFSET -3.6576 8.04674 8.04672
            CHANNELS 3 Zrotation Xrotation Yrotation
            End Site
            {
              OFFSET 1 0 0
            }
          }
        }
      }
      JOINT rCollar
      {
        OFFSET -2.68224 19.2634 -4.8768
        CHANNELS 3 Zrotation Xrotation Yrotation
        JOINT rShldr
        {
          OFFSET -8.77824 -1.95073 1.46304
          CHANNELS 3 Zrotation Xrotation Yrotation
          JOINT rForeArm
          {
            OFFSET -28.1742 -1.7115 0.48768
            CHANNELS 3 Zrotation Xrotation Yrotation
            JOINT rHand
            {
              OFFSET -22.5879 0.773209 7.07136
              CHANNELS 3 Zrotation Xrotation Yrotation
              JOINT rThumb1
              {
                OFFSET -1.2192 -0.487915 3.41376
                CHANNELS 3 Zrotation Xrotation Yrotation
                JOINT rThumb2
                {
                  OFFSET -3.37035 -0.52449 3.41376
                  CHANNELS 3 Zrotation Xrotation Yrotation
                  End Site
                  {
                    OFFSET -1.78271 -1.18214 1.43049
                  }
                }
              }
              JOINT rIndex1
              {
                OFFSET -7.75947 0.938293 5.60832
                CHANNELS 3 Zrotation Xrotation Yrotation
                JOINT rIndex2
                {
                  OFFSET -2.54057 -0.884171 1.56538
                  CHANNELS 3 Zrotation Xrotation Yrotation
                  End Site
                  {
                    OFFSET -1.62519 -0.234802 1.16502
                  }
                }
              }
              JOINT rMid1
              {
                OFFSET -8.24714 1.18213 3.41376
                CHANNELS 3 Zrotation Xrotation Yrotation
                JOINT rMid2
                {
                  OFFSET -3.10165 -0.590103 1.0647
                  CHANNELS 3 Zrotation Xrotation Yrotation
                  End Site
                  {
                    OFFSET -2.48547 -0.328903 0.83742
                  }
                }
              }
              JOINT rRing1
              {
                OFFSET -8.82822 0.546677 1.51678
                CHANNELS 3 Zrotation Xrotation Yrotation
                JOINT rRing2
                {
                  OFFSET -2.60934 -0.819778 -0.0198488
                  CHANNELS 3 Zrotation Xrotation Yrotation
                  End Site
                  {
                    OFFSET -2.33842 -0.294052 0.168128
                  }
                }
              }
              JOINT rPinky1
              {
                OFFSET -8.27202 -0.0477905 -0.4584
                CHANNELS 3 Zrotation Xrotation Yrotation
                JOINT rPinky2
                {
                  OFFSET -1.82734 -0.647385 -0.700984
                  CHANNELS 3 Zrotation Xrotation Yrotation
                  End Site
                  {
                    OFFSET -1.69225 -0.51767 -0.607171
                  }
                }
              }
            }
          }
        }
      }
      JOINT lCollar
      {
        OFFSET 2.68224 19.2634 -4.8768
        CHANNELS 3 Zrotation Xrotation Yrotation
        JOINT lShldr
        {
          OFFSET 8.77824 -1.95073 1.46304
          CHANNELS 3 Zrotation Xrotation Yrotation
          JOINT lForeArm
          {
            OFFSET 28.1742 -1.7115 0.48768
            CHANNELS 3 Zrotation Xrotation Yrotation
            JOINT lHand
            {
              OFFSET 22.5879 0.773209 7.07136
              CHANNELS 3 Zrotation Xrotation Yrotation
              JOINT lThumb1
              {
                OFFSET 1.2192 -0.487915 3.41376
                CHANNELS 3 Zrotation Xrotation Yrotation
                JOINT lThumb2
                {
                  OFFSET 3.37035 -0.52449 3.41376
                  CHANNELS 3 Zrotation Xrotation Yrotation
                  End Site
                  {
                    OFFSET 1.78271 -1.18214 1.43049
                  }
                }
              }
              JOINT lIndex1
              {
                OFFSET 7.75947 0.938293 5.60832
                CHANNELS 3 Zrotation Xrotation Yrotation
                JOINT lIndex2
                {
                  OFFSET 2.54057 -0.884171 1.56538
                  CHANNELS 3 Zrotation Xrotation Yrotation
                  End Site
                  {
                    OFFSET 1.62519 -0.234802 1.16502
                  }
                }
              }
              JOINT lMid1
              {
                OFFSET 8.24714 1.18213 3.41376
                CHANNELS 3 Zrotation Xrotation Yrotation
                JOINT lMid2
                {
                  OFFSET 3.10165 -0.590103 1.0647
                  CHANNELS 3 Zrotation Xrotation Yrotation
                  End Site
                  {
                    OFFSET 2.48547 -0.328903 0.83742
                  }
                }
              }
              JOINT lRing1
              {
                OFFSET 8.82822 0.546677 1.51678
                CHANNELS 3 Zrotation Xrotation Yrotation
                JOINT lRing2
                {
                  OFFSET 2.60934 -0.819778 -0.0198488
                  CHANNELS 3 Zrotation Xrotation Yrotation
                  End Site
                  {
                    OFFSET 2.33842 -0.294052 0.168128
                  }
                }
              }
              JOINT lPinky1
              {
                OFFSET 8.27202 -0.0477905 -0.4584
                CHANNELS 3 Zrotation Xrotation Yrotation
                JOINT lPinky2
                {
                  OFFSET 1.82734 -0.647385 -0.700984
                  CHANNELS 3 Zrotation Xrotation Yrotation
                  End Site
                  {
                    OFFSET 1.69225 -0.51767 -0.607171
                  }
                }
              }
            }
          }
        }
      }
    }
  }
  JOINT rButtock
  {
    OFFSET -8.77824 4.35084 1.2192
    CHANNELS 3 Zrotation Xrotation Yrotation
    JOINT rThigh
    {
      OFFSET 0 -1.70687 -2.19456
      CHANNELS 3 Zrotation Xrotation Yrotation
      JOINT rShin
      {
        OFFSET 0 -36.8199 0.73152
        CHANNELS 3 Zrotation Xrotation Yrotation
        JOINT rFoot
        {
          OFFSET 0.73152 -45.1104 -5.12064
          CHANNELS 3 Zrotation Xrotation Yrotation
          End Site
          {
            OFFSET -1.1221 -3.69964 12.103
          }
        }
      }
    }
  }
  JOINT lButtock
  {
    OFFSET 8.77824 4.35084 1.2192
    CHANNELS 3 Zrotation Xrotation Yrotation
    JOINT lThigh
    {
      OFFSET 0 -1.70687 -2.19456
      CHANNELS 3 Zrotation Xrotation Yrotation
      JOINT lShin
      {
        OFFSET 0 -36.8199 0.73152
        CHANNELS 3 Zrotation Xrotation Yrotation
        JOINT lFoot
        {
          OFFSET -0.73152 -45.1104 -5.12064
          CHANNELS 3 Zrotation Xrotation Yrotation
          End Site
          {
            OFFSET 1.1221 -3.69964 12.103
          }
        }
      }
    }
  }
}
MOTION
Frames:	9
Frame Time:	0.00833333
42.4705 76.5418 -27.2156 -188.166 91.4757 -170.731 -3.62293 50.3046 -2.74526 -3.28311 -8.95057 -0.241448 2.86894 15.071 0.0132787 4.89602 -64.3432 5.00342 -0.0 0.0 0.0 -0.0 0.0 0.0 -2.8307e-14 2.26582e-13 -7.74212e-15 80.5483 29.2002 5.50681 -21.0519 -14.3951 41.2991 -0.0330371 -5.18008 -0.730024 -5.43813e-11 -1.0207e-09 5.72272e-10 -9.84909e-11 -1.76664e-09 9.89825e-10 -5.43735e-11 -1.0207e-09 5.7226e-10 7.73091 5.47488 0.417314 -5.43794e-11 -1.0207e-09 5.72267e-10 2.90554 0.965183 0.102902 -5.43703e-11 -1.0207e-09 5.72278e-10 10.2786 0.731801 0.0259123 -5.43916e-11 -1.0207e-09 5.72287e-10 2.22167 -0.733487 -0.20892 -2.82864e-14 2.26581e-13 -8.04612e-15 -72.6081 17.8008 -8.83158 16.1096 -8.78956 -29.9042 0.610778 -21.6355 3.1956 6.9064e-10 -6.50001e-10 1.26414e-11 1.19644e-09 -1.12076e-09 3.09516e-11 6.90636e-10 -6.49993e-10 1.26641e-11 -7.73091 5.47488 -0.417314 6.90642e-10 -6.5e-10 1.26397e-11 -2.90554 0.965183 -0.102902 6.90634e-10 -6.50001e-10 1.26406e-11 -10.2786 0.731801 -0.0259123 6.90644e-10 -6.5e-10 1.26343e-11 -2.22167 -0.733487 0.20892 -2.03217e-16 0.0 -3.88251e-19 -1.19983 -57.7149 -3.25084 -4.35494 78.0043 4.27016 -0.598476 5.55135 -6.52408 2.03217e-16 0.0 3.88251e-19 10.0518 -72.447 17.385 0.538778 44.4815 0.00369838 2.10667 32.2653 -3.96655
41.7077 76.5797 -27.0896 -186.37 91.2306 -168.998 -3.35503 50.3891 -3.03072 -3.24904 -8.94806 -0.26989 2.85394 15.1577 0.011335 4.91529 -64.3255 5.00357 -0.0 0.0 0.0 -0.0 0.0 0.0 7.91387e-15 -2.92312e-13 -8.59744e-15 80.5277 29.258 5.51321 -21.0418 -14.3812 41.2731 -0.032697 -5.1545 -0.726398 -2.34952e-10 -1.53406e-09 8.40016e-10 -4.12725e-10 -2.6543e-09 1.45181e-09 -2.34942e-10 -1.53406e-09 8.4e-10 7.73091 5.47488 0.417314 -2.3495e-10 -1.53406e-09 8.4001e-10 2.90554 0.965183 0.102902 -2.34939e-10 -1.53406e-09 8.40018e-10 10.2786 0.731801 0.0259123 -2.34963e-10 -1.53406e-09 8.40029e-10 2.22167 -0.733487 -0.20892 7.98942e-15 -2.92312e-13 -8.89561e-15 -72.5736 17.8529 -8.86102 16.1421 -8.81992 -29.9732 0.610616 -21.6329 3.19518 9.81446e-10 -1.15546e-09 3.77118e-11 1.7012e-09 -1.9946e-09 7.75356e-11 9.81442e-10 -1.15545e-09 3.77373e-11 -7.73091 5.47488 -0.417314 9.81447e-10 -1.15546e-09 3.77087e-11 -2.90554 0.965183 -0.102902 9.8144e-10 -1.15546e-09 3.77095e-11 -10.2786 0.731801 -0.0259123 9.81449e-10 -1.15546e-09 3.77023e-11 -2.22167 -0.733487 0.20892 -2.03217e-16 0.0 -3.88251e-19 -1.14275 -58.2009 -3.39499 -4.36388 78.0236 4.27778 -0.642583 5.42235 -6.94939 2.03217e-16 0.0 3.88251e-19 10.1773 -72.4446 17.461 0.52084 43.8335 0.0279338 2.08275 33.1388 -3.80591
40.9602 76.5895 -26.9649 -183.857 90.957 -166.549 -3.05731 50.4164 -3.35141 -3.21423 -8.91358 -0.30164 2.84745 15.1827 0.012392 4.90483 -64.1676 4.97082 -0.0 0.0 0.0 -0.0 0.0 0.0 1.66163e-14 -5.61838e-13 -1.83794e-14 80.5162 29.2832 5.50328 -21.02 -14.3513 41.2171 -0.0318187 -5.08638 -0.716745 -1.73619e-10 -1.27978e-09 7.21222e-10 -3.05601e-10 -2.2145e-09 1.24681e-09 -1.73606e-10 -1.27977e-09 7.21202e-10 7.73091 5.47488 0.417314 -1.73616e-10 -1.27978e-09 7.21216e-10 2.90554 0.965183 0.102902 -1.73604e-10 -1.27978e-09 7.21216e-10 10.2786 0.731801 0.0259123 -1.73628e-10 -1.27978e-09 7.21231e-10 2.22167 -0.733487 -0.20892 1.66936e-14 -5.61836e-13 -1.86652e-14 -72.5498 17.8848 -8.88745 16.1591 -8.83585 -30.0094 0.608667 -21.6004 3.18989 8.27173e-10 -1.11488e-09 -1.24316e-10 1.43619e-09 -1.92609e-09 -2.05331e-10 8.27167e-10 -1.11487e-09 -1.24289e-10 -7.73091 5.47488 -0.417314 8.27173e-10 -1.11488e-09 -1.24318e-10 -2.90554 0.965183 -0.102902 8.27166e-10 -1.11488e-09 -1.24318e-10 -10.2786 0.731801 -0.0259123 8.27175e-10 -1.11488e-09 -1.24323e-10 -2.22167 -0.733487 0.20892 -2.03217e-16 0.0 -3.88251e-19 -1.17316 -58.6413 -3.69007 -4.38182 78.0582 4.29221 -0.711541 5.11532 -7.40196 2.03217e-16 0.0 3.88251e-19 10.3268 -72.4788 17.613 0.51171 43.5114 0.0351678 2.15801 33.2228 -3.92937
40.2252 76.5702 -26.8436 -179.825 90.6712 -162.576 -2.73023 50.4018 -3.70317 -3.1789 -8.85369 -0.336244 2.84659 15.1705 0.0158049 4.87594 -63.9093 4.91678 -0.0 0.0 0.0 -0.0 0.0 0.0 1.03622e-14 -7.16245e-13 -3.4368e-14 80.5111 29.2859 5.47711 -20.9893 -14.3093 41.1388 -0.0306129 -4.98964 -0.703042 4.15798e-11 -5.50317e-10 3.6447e-10 6.94872e-11 -9.53009e-10 6.31225e-10 4.15945e-11 -5.50315e-10 3.64444e-10 7.73091 5.47488 0.417314 4.15839e-11 -5.5032e-10 3.64464e-10 2.90554 0.965183 0.102902 4.15966e-11 -5.50319e-10 3.64454e-10 10.2786 0.731801 0.0259123 4.15744e-11 -5.50319e-10 3.64473e-10 2.22167 -0.733487 -0.20892 1.04114e-14 -7.1624e-13 -3.46351e-14 -72.5356 17.904 -8.90739 16.1668 -8.84311 -30.0258 0.605377 -21.5454 3.18093 4.00439e-10 -7.54975e-10 -4.18882e-10 7.00225e-10 -1.30667e-09 -7.21073e-10 4.00432e-10 -7.54965e-10 -4.18854e-10 -7.73091 5.47488 -0.417314 4.00439e-10 -7.54974e-10 -4.1888e-10 -2.90554 0.965183 -0.102902 4.0043e-10 -7.54974e-10 -4.18881e-10 -10.2786 0.731801 -0.0259123 4.00439e-10 -7.54974e-10 -4.18883e-10 -2.22167 -0.733487 0.20892 -2.03217e-16 0.0 -3.88251e-19 -1.2728 -59.0364 -4.09942 -4.40491 78.1005 4.31014 -0.803128 4.67712 -7.86924 2.03217e-16 0.0 3.88251e-19 10.504 -72.5248 17.8324 0.508479 43.4329 0.0300892 2.30206 32.703 -4.26022
39.5037 76.5184 -26.728 -170.323 90.3902 -153.123 -2.40504 50.3603 -4.04679 -3.14711 -8.78905 -0.369687 2.8475 15.1312 0.0196118 4.83016 -63.6102 4.84818 -0.0 0.0 0.0 -0.0 0.0 0.0 -1.27822e-15 -8.36325e-13 -5.24795e-14 80.5222 29.2575 5.42067 -20.9559 -14.2636 41.0539 -0.0292966 -4.88069 -0.687616 3.12824e-10 3.25359e-10 -6.29169e-11 5.42082e-10 5.61275e-10 -1.062e-10 3.1284e-10 3.25362e-10 -6.29468e-11 7.73091 5.47488 0.417314 3.12829e-10 3.25358e-10 -6.29214e-11 2.90554 0.965183 0.102902 3.12842e-10 3.2536e-10 -6.29413e-11 10.2786 0.731801 0.0259123 3.12822e-10 3.25359e-10 -6.29184e-11 2.22167 -0.733487 -0.20892 -1.26883e-15 -8.36318e-13 -5.27311e-14 -72.5306 17.9155 -8.9197 16.1662 -8.84249 -30.0243 0.601186 -21.475 3.16949 -1.1554e-10 -3.06615e-10 -7.63322e-10 -1.8983e-10 -5.34827e-10 -1.32422e-09 -1.15549e-10 -3.06607e-10 -7.63294e-10 -7.73091 5.47488 -0.417314 -1.15541e-10 -3.06615e-10 -7.63317e-10 -2.90554 0.965183 -0.102902 -1.1555e-10 -3.06614e-10 -7.63319e-10 -10.2786 0.731801 -0.0259123 -1.15541e-10 -3.06614e-10 -7.63317e-10 -2.22167 -0.733487 0.20892 -2.03217e-16 0.0 -3.88251e-19 -1.40951 -59.4269 -4.54865 -4.43746 78.1632 4.33777 -0.904739 4.20501 -8.31869 2.03217e-16 0.0 3.88251e-19 10.7509 -72.6121 18.1426 0.511653 43.6531 0.0109326 2.46876 31.725 -4.71493
38.7928 76.4382 -26.6195 -131.838 90.165 -114.673 -2.11233 50.3075 -4.34361 -3.12298 -8.74032 -0.397961 2.84636 15.0752 0.021852 4.76834 -63.3298 4.77108 -0.0 0.0 0.0 -0.0 0.0 0.0 -8.7349e-15 -1.00287e-12 -6.86304e-14 80.559 29.1892 5.32005 -20.9259 -14.2229 40.9781 -0.0280571 -4.77595 -0.672791 5.42294e-10 1.01829e-09 -3.93616e-10 9.41726e-10 1.75944e-09 -6.7671e-10 5.4231e-10 1.01829e-09 -3.93648e-10 7.73091 5.47488 0.417314 5.42299e-10 1.01829e-09 -3.93619e-10 2.90554 0.965183 0.102902 5.42312e-10 1.01829e-09 -3.93644e-10 10.2786 0.731801 0.0259123 5.42293e-10 1.01829e-09 -3.93619e-10 2.22167 -0.733487 -0.20892 -8.75878e-15 -1.00286e-12 -6.88789e-14 -72.5344 17.9242 -8.92326 16.1579 -8.8348 -30.0068 0.596522 -21.3966 3.15675 -5.37549e-10 -6.63957e-13 -1.07497e-09 -9.17113e-10 -9.04232e-12 -1.86932e-09 -5.37557e-10 -6.56387e-13 -1.07495e-09 -7.73091 5.47488 -0.417314 -5.37549e-10 -6.63742e-13 -1.07497e-09 -2.90554 0.965183 -0.102902 -5.37559e-10 -6.62251e-13 -1.07497e-09 -10.2786 0.731801 -0.0259123 -5.3755e-10 -6.6235e-13 -1.07497e-09 -2.22167 -0.733487 0.20892 -2.03217e-16 0.0 -3.88251e-19 -1.54934 -59.855 -4.96192 -4.48408 78.2589 4.38163 -0.999674 3.79577 -8.71773 2.03217e-16 0.0 3.88251e-19 11.1131 -72.7702 18.5705 0.522434 44.2271 -0.0245486 2.61429 30.4349 -5.21206
38.0965 76.334 -26.5184 -51.2964 90.2243 -34.1566 -1.84943 50.2285 -4.59039 -3.10805 -8.70769 -0.420326 2.84195 14.9934 0.0235343 4.67909 -63.0491 4.67807 -0.0 0.0 0.0 -0.0 0.0 0.0 -1.07254e-14 -1.36003e-12 -8.86591e-14 80.6332 29.0696 5.15514 -20.9022 -14.1906 40.918 -0.0267829 -4.66773 -0.657475 7.56818e-10 1.52949e-09 -6.17e-10 1.3148e-09 2.64309e-09 -1.06182e-09 7.56833e-10 1.5295e-09 -6.17029e-10 7.73091 5.47488 0.417314 7.56821e-10 1.5295e-09 -6.17001e-10 2.90554 0.965183 0.102902 7.56834e-10 1.5295e-09 -6.17023e-10 10.2786 0.731801 0.0259123 7.56815e-10 1.5295e-09 -6.17e-10 2.22167 -0.733487 -0.20892 -1.07814e-14 -1.36002e-12 -8.89243e-14 -72.5528 17.9278 -8.91487 16.1382 -8.81635 -29.965 0.59063 -21.2973 3.14062 -8.69664e-10 8.57929e-11 -1.41367e-09 -1.48761e-09 1.3674e-10 -2.45994e-09 -8.69673e-10 8.57984e-11 -1.41364e-09 -7.73091 5.47488 -0.417314 -8.69665e-10 8.57928e-11 -1.41366e-09 -2.90554 0.965183 -0.102902 -8.69675e-10 8.57943e-11 -1.41366e-09 -10.2786 0.731801 -0.0259123 -8.69665e-10 8.57945e-11 -1.41366e-09 -2.22167 -0.733487 0.20892 -2.03217e-16 0.0 -3.88251e-19 -1.68957 -60.3424 -5.34413 -4.55421 78.4057 4.4511 -1.08644 3.44923 -9.07748 2.03217e-16 0.0 3.88251e-19 11.6362 -73.0335 19.1705 0.546122 45.2311 -0.0820634 2.74055 28.7181 -5.80431
37.4149 76.2182 -26.426 -32.3685 90.4297 -15.2492 -1.60433 50.1218 -4.80488 -3.1 -8.68191 -0.438814 2.8364 14.8841 0.0251927 4.56692 -62.7479 4.56996 -0.0 0.0 0.0 -0.0 0.0 0.0 -1.19306e-14 -1.82384e-12 -1.12434e-13 80.7353 28.906 4.93938 -20.8811 -14.1619 40.8645 -0.0254465 -4.55129 -0.641002 9.90928e-10 2.00484e-09 -8.10976e-10 1.7216e-09 3.46456e-09 -1.39602e-09 9.90941e-10 2.00485e-09 -8.11001e-10 7.73091 5.47488 0.417314 9.90929e-10 2.00484e-09 -8.10975e-10 2.90554 0.965183 0.102902 9.9094e-10 2.00484e-09 -8.10989e-10 10.2786 0.731801 0.0259123 9.90922e-10 2.00485e-09 -8.1097e-10 2.22167 -0.733487 -0.20892 -1.20238e-14 -1.82383e-12 -1.1273e-13 -72.5842 17.925 -8.8961 16.1079 -8.78796 -29.9007 0.583623 -21.1782 3.12132 -1.19196e-09 8.10573e-11 -1.79619e-09 -2.04017e-09 1.24273e-10 -3.12622e-09 -1.19196e-09 8.106e-11 -1.79618e-09 -7.73091 5.47488 -0.417314 -1.19196e-09 8.10567e-11 -1.79619e-09 -2.90554 0.965183 -0.102902 -1.19197e-09 8.10579e-11 -1.79619e-09 -10.2786 0.731801 -0.0259123 -1.19196e-09 8.10588e-11 -1.7962e-09 -2.22167 -0.733487 0.20892 -2.03217e-16 0.0 -3.88251e-19 -1.84837 -60.8633 -5.72948 -4.64471 78.592 4.54222 -1.17106 3.12232 -9.40883 2.03217e-16 0.0 3.88251e-19 12.3069 -73.3756 19.934 0.584574 46.6152 -0.161717 2.82652 26.5489 -6.49765
36.7502 76.1011 -26.3423 -27.5681 90.6179 -10.4673 -1.3922 50.0233 -4.981 -3.09725 -8.66949 -0.453585 2.83079 14.7693 0.0241614 4.45472 -62.4842 4.46322 -0.0 0.0 0.0 -0.0 0.0 0.0 -1.17253e-14 -2.13295e-12 -1.26918e-13 80.8444 28.7182 4.70908 -20.8593 -14.1324 40.8092 -0.0243005 -4.44749 -0.626324 1.15836e-09 2.33263e-09 -9.41026e-10 2.01255e-09 4.03095e-09 -1.62004e-09 1.15837e-09 2.33264e-09 -9.41046e-10 7.73091 5.47488 0.417314 1.15836e-09 2.33263e-09 -9.41023e-10 2.90554 0.965183 0.102902 1.15837e-09 2.33264e-09 -9.41028e-10 10.2786 0.731801 0.0259123 1.15835e-09 2.33264e-09 -9.41014e-10 2.22167 -0.733487 -0.20892 -1.1844e-14 -2.13294e-12 -1.27245e-13 -72.6165 17.9217 -8.87295 16.0751 -8.75724 -29.8313 0.577169 -21.0672 3.10338 -1.4352e-09 6.23479e-11 -2.07535e-09 -2.45716e-09 8.86094e-11 -3.61248e-09 -1.43521e-09 6.23479e-11 -2.07534e-09 -7.73091 5.47488 -0.417314 -1.4352e-09 6.23469e-11 -2.07534e-09 -2.90554 0.965183 -0.102902 -1.43521e-09 6.23477e-11 -2.07535e-09 -10.2786 0.731801 -0.0259123 -1.4352e-09 6.23492e-11 -2.07536e-09 -2.22167 -0.733487 0.20892 -2.03217e-16 0.0 -3.88251e-19 -2.01848 -61.3891 -6.08219 -4.7407 78.7856 4.64079 -1.24433 2.84695 -9.67864 2.03217e-16 0.0 3.88251e-19 13.0771 -73.7344 20.7891 0.634143 48.2453 -0.257687 2.82628 24.2082 -7.15592
